<svg width="15" height="18" viewBox="0 0 15 18" fill="none" xmlns="http://www.w3.org/2000/svg">
<path d="M13.5714 13.8963H13.0625V7.10786C13.0625 4.29067 10.8508 1.96265 7.97321 1.57531V0.798636C7.97321 0.35739 7.59364 0 7.125 0C6.65636 0 6.27679 0.35739 6.27679 0.798636V1.57531C3.39922 1.96265 1.1875 4.29067 1.1875 7.10786V13.8963H0.678571C0.303237 13.8963 0 14.1818 0 14.5352V15.1741C0 15.2619 0.0763393 15.3338 0.169643 15.3338H4.75C4.75 16.5677 5.81451 17.57 7.125 17.57C8.43549 17.57 9.5 16.5677 9.5 15.3338H14.0804C14.1737 15.3338 14.25 15.2619 14.25 15.1741V14.5352C14.25 14.1818 13.9468 13.8963 13.5714 13.8963ZM7.125 16.2922C6.56306 16.2922 6.10714 15.8629 6.10714 15.3338H8.14286C8.14286 15.8629 7.68694 16.2922 7.125 16.2922ZM2.71429 13.8963V7.10786C2.71429 5.99776 3.17232 4.95554 4.00569 4.17088C4.83906 3.38622 5.94598 2.95495 7.125 2.95495C8.30402 2.95495 9.41094 3.38622 10.2443 4.17088C11.0777 4.95554 11.5357 5.99776 11.5357 7.10786V13.8963H2.71429Z" fill="#7E8389"/>
</svg>
