<svg width="26" height="23" viewBox="0 0 26 23" fill="none" xmlns="http://www.w3.org/2000/svg">
<path d="M25.4958 9.84939L22.9126 7.7266V3.50007C22.9126 3.40614 22.8753 3.31605 22.8089 3.24963C22.7424 3.18321 22.6524 3.1459 22.5584 3.1459H21.1418C21.0509 3.14709 20.9639 3.18319 20.8989 3.24673C20.8339 3.31027 20.7958 3.39638 20.7925 3.48723V5.98455L14.5888 0.888088C14.1431 0.516349 13.5812 0.312744 13.0008 0.312744C12.4204 0.312744 11.8585 0.516349 11.4128 0.888088L0.505797 9.84939C0.434459 9.9091 0.375579 9.98227 0.332521 10.0647C0.289463 10.1472 0.263069 10.2373 0.254847 10.33C0.246625 10.4226 0.256736 10.516 0.284602 10.6048C0.312469 10.6935 0.357544 10.7759 0.417256 10.8473L0.870589 11.3918C0.991156 11.5357 1.16394 11.6259 1.35097 11.6425C1.538 11.6591 1.72397 11.6008 1.86801 11.4803L3.08413 10.482V13.0626H3.07041V22.2709C3.07192 22.4591 3.14764 22.639 3.28111 22.7717C3.41458 22.9043 3.595 22.9789 3.78317 22.9792H22.2091C22.397 22.9792 22.5772 22.9046 22.71 22.7718C22.8428 22.6389 22.9175 22.4588 22.9175 22.2709V10.482L24.1349 11.4821C24.2789 11.6026 24.4649 11.6609 24.652 11.6443C24.839 11.6277 25.0118 11.5375 25.1323 11.3936L25.5866 10.849C25.6464 10.7775 25.6916 10.6949 25.7194 10.6059C25.7472 10.5169 25.7572 10.4232 25.7488 10.3304C25.7404 10.2375 25.7137 10.1472 25.6703 10.0646C25.6268 9.98211 25.5676 9.90896 25.4958 9.84939ZM20.7925 10.2292H20.7832V20.8542H15.8341V14.4792C15.8341 14.1035 15.6849 13.7432 15.4192 13.4775C15.1535 13.2118 14.7932 13.0626 14.4175 13.0626H11.5841C11.2084 13.0626 10.8481 13.2118 10.5824 13.4775C10.3167 13.7432 10.1675 14.1035 10.1675 14.4792V20.8542H5.19541V8.92236L5.20913 8.91129V8.73421L13.0008 2.33353L20.7925 8.73598V10.2292Z" fill="#1F1235"/>
</svg>
