<svg width="22" height="25" viewBox="0 0 22 25" fill="none" xmlns="http://www.w3.org/2000/svg">
<path d="M15.25 14.7321C13.8887 14.7321 13.2341 15.4911 11 15.4911C8.7659 15.4911 8.11607 14.7321 6.75 14.7321C3.23047 14.7321 0.375 17.5876 0.375 21.1071V22.3214C0.375 23.5784 1.39481 24.5982 2.65179 24.5982H19.3482C20.6052 24.5982 21.625 23.5784 21.625 22.3214V21.1071C21.625 17.5876 18.7695 14.7321 15.25 14.7321ZM19.3482 22.3214H2.65179V21.1071C2.65179 18.8493 4.49219 17.0089 6.75 17.0089C7.44252 17.0089 8.56669 17.7679 11 17.7679C13.4523 17.7679 14.5527 17.0089 15.25 17.0089C17.5078 17.0089 19.3482 18.8493 19.3482 21.1071V22.3214ZM11 13.9732C14.7709 13.9732 17.8304 10.9138 17.8304 7.14286C17.8304 3.37193 14.7709 0.3125 11 0.3125C7.22907 0.3125 4.16964 3.37193 4.16964 7.14286C4.16964 10.9138 7.22907 13.9732 11 13.9732ZM11 2.58929C13.5092 2.58929 15.5536 4.63365 15.5536 7.14286C15.5536 9.65207 13.5092 11.6964 11 11.6964C8.49079 11.6964 6.44643 9.65207 6.44643 7.14286C6.44643 4.63365 8.49079 2.58929 11 2.58929Z" fill="#1F1235"/>
</svg>
